<svg width="20" height="20" viewBox="0 0 20 20" fill="none" xmlns="http://www.w3.org/2000/svg">
<circle cx="10" cy="10" r="10" fill="#00972D"/>
<path d="M6.93396 9.15103L7.16981 8.55355C10.4151 8.4655 12.4738 9.95292 13.0975 10.7076C13.0975 10.7181 13.0535 10.8617 12.8774 11.3523C11.1038 9.2894 8.1761 9.02525 6.93396 9.15103Z" stroke="#E4E9EE" stroke-width="0.0214256"/>
<path d="M10 5L18.6364 10L10 15L1.36365 10L10 5Z" fill="#F7D901"/>
<circle cx="9.99993" cy="9.99993" r="3.18182" fill="#002175"/>
<path d="M6.91821 9.10521L7.15525 8.49243C10.3157 8.42958 12.4437 9.9013 13.1127 10.645C13.1179 10.6555 13.1127 10.8175 12.9072 11.2892C11.1374 9.27804 8.17712 8.99522 6.91821 9.10521Z" fill="#DDE6DC"/>
</svg>
