<svg width="20" height="20" viewBox="0 0 20 20" fill="none" xmlns="http://www.w3.org/2000/svg">
<circle cx="10" cy="10" r="10" fill="#CB001C"/>
<path d="M10 0C10.2146 0 10.4275 0.00817027 10.6387 0.0214844V11.915H0.185547C0.065282 11.2951 0 10.6551 0 10C0 4.47715 4.47715 0 10 0Z" fill="#2A3561"/>
<path d="M8.93615 8.93628L9.12722 9.52435H9.74556L9.24531 9.8878L9.43639 10.4759L8.93615 10.1124L8.4359 10.4759L8.62698 9.8878L8.12674 9.52435H8.74507L8.93615 8.93628Z" fill="#D9D9D9"/>
<path d="M8.93615 4.68091L9.12722 5.26898H9.74556L9.24531 5.63243L9.43639 6.2205L8.93615 5.85705L8.4359 6.2205L8.62698 5.63243L8.12674 5.26898H8.74507L8.93615 4.68091Z" fill="#D9D9D9"/>
<path d="M5.10643 8.93628L5.29751 9.52435H5.91584L5.4156 9.8878L5.60668 10.4759L5.10643 10.1124L4.60619 10.4759L4.79727 9.8878L4.29703 9.52435H4.91536L5.10643 8.93628Z" fill="#D9D9D9"/>
<path d="M5.10643 4.68091L5.29751 5.26898H5.91584L5.4156 5.63243L5.60668 6.2205L5.10643 5.85705L4.60619 6.2205L4.79727 5.63243L4.29703 5.26898H4.91536L5.10643 4.68091Z" fill="#D9D9D9"/>
<path d="M8.93615 0.851074L9.12722 1.43914H9.74556L9.24531 1.80259L9.43639 2.39066L8.93615 2.02722L8.4359 2.39066L8.62698 1.80259L8.12674 1.43914H8.74507L8.93615 0.851074Z" fill="#D9D9D9"/>
<path d="M1.2766 8.93628L1.46768 9.52435H2.08601L1.58577 9.8878L1.77684 10.4759L1.2766 10.1124L0.776358 10.4759L0.967434 9.8878L0.467191 9.52435H1.08553L1.2766 8.93628Z" fill="#D9D9D9"/>
<path d="M3.40429 6.80859L3.59536 7.39666H4.2137L3.71345 7.76011L3.90453 8.34818L3.40429 7.98474L2.90404 8.34818L3.09512 7.76011L2.59488 7.39666H3.21321L3.40429 6.80859Z" fill="#D9D9D9"/>
<path d="M3.40429 2.97876L3.59536 3.56683H4.2137L3.71345 3.93028L3.90453 4.51835L3.40429 4.1549L2.90404 4.51835L3.09512 3.93028L2.59488 3.56683H3.21321L3.40429 2.97876Z" fill="#D9D9D9"/>
<path d="M7.234 6.80859L7.42507 7.39666H8.04341L7.54317 7.76011L7.73424 8.34818L7.234 7.98474L6.73376 8.34818L6.92483 7.76011L6.42459 7.39666H7.04292L7.234 6.80859Z" fill="#D9D9D9"/>
<path d="M7.234 2.97876L7.42507 3.56683H8.04341L7.54317 3.93028L7.73424 4.51835L7.234 4.1549L6.73376 4.51835L6.92483 3.93028L6.42459 3.56683H7.04292L7.234 2.97876Z" fill="#D9D9D9"/>
<path d="M17.4924 16.5962C16.7467 17.4449 15.8602 18.1661 14.8684 18.7231H5.09106C4.09919 18.1661 3.21281 17.4448 2.46704 16.5962H17.4924ZM19.7942 11.9146C19.6503 12.6567 19.4235 13.3687 19.1252 14.0425H0.833252C0.535067 13.3688 0.309203 12.6566 0.165283 11.9146H19.7942ZM19.5881 7.23389C19.7842 7.91633 19.9101 8.62797 19.9563 9.36182H10.6379V7.23389H19.5881ZM16.6516 2.55322C17.344 3.17403 17.9479 3.89063 18.4456 4.68115H10.6379V2.55322H16.6516Z" fill="#F5F5F5"/>
</svg>
